# xmcd
#
# Track frame offsets:
#	182
#	11125
#	26990
#	39842
#	50867
#	69925
#	83532
#	99825
#	113600
#	125705
#	139972
#	157595
#	172970
#	183217
#	196927
#	215412
#
# Disc length: 3060 seconds
#
# Revision: 1
# Processed by: cddbd v1.5.2PL0 Copyright (c) Steve Scherf et al.
# Submitted via: audiograbber 1.83.01
#
DISCID=cb0bf210
DTITLE=Various Artist - Countrypak 4
DYEAR=1900
DGENRE=Country
TTITLE0=George Hamilton IV - (Always Have, Always Will) And I Still Do
TTITLE1=Loma Lyns - Countin' On You This Time
TTITLE2=Lenora Clare - Don't Come Knockin'
TTITLE3=Russ Gordon - I've Got a Mind to Leave Her
TTITLE4=Guy Leithwood - Lonely Linda
TTITLE5=Lindsay Thomas Morgan - Love Is
TTITLE6=Rena Gaile - Now I'm Home
TTITLE7=Darlana Moffatt - Scars of Love
TTITLE8=Paula Manderson - Tall, Dark and Lonesome
TTITLE9=Larry Mercey - True Blue
TTITLE10=Lois Garrity - You Picked Up the Pieces
TTITLE11=Albert Hall - Blue Moon Cafe
TTITLE12=Larry Mercey - Full Speed Ahead
TTITLE13=Darlana Moffatt - Shattered Dreams
TTITLE14=Lindsay Thomas Morgan - Tara
TTITLE15=Paula Manderson - Wasn't It You
EXTD=
EXTT0=
EXTT1=
EXTT2=
EXTT3=
EXTT4=
EXTT5=
EXTT6=
EXTT7=
EXTT8=
EXTT9=
EXTT10=
EXTT11=
EXTT12=
EXTT13=
EXTT14=
EXTT15=
PLAYORDER=
